<svg xmlns="http://www.w3.org/2000/svg" viewBox="0 0 500 500">
  <defs>
    <style>
      .chameleon-body {
        fill: #10b981;
        transition: fill 0.7s ease;
      }
      .dark .chameleon-body {
        fill: #7c3aed;
      }
    </style>
  </defs>
  <g transform="translate(0,500) scale(0.1,-0.1)">
    <path class="chameleon-body" d="M2870 4260 c0 -6 8 -24 19 -38 20 -29 56 -120 50 -126 -2 -2 -51 3
-109 11 -165 23 -359 -2 -537 -67 -67 -25 -154 -72 -160 -86 -2 -6 8 -29 22
-50 15 -22 43 -73 63 -114 30 -63 37 -89 40 -157 8 -144 -29 -190 -221 -275
-246 -109 -379 -237 -497 -483 -44 -92 -100 -257 -130 -380 -6 -27 -18 -75
-25 -105 -17 -67 -47 -221 -76 -390 -38 -219 -13 -393 78 -550 49 -84 153
-187 225 -225 32 -17 58 -32 58 -35 0 -5 -232 -138 -293 -169 -26 -13 -30 -12
-53 10 l-24 25 59 104 59 103 -31 39 c-18 21 -35 38 -39 38 -6 0 -78 -124
-248 -425 -9 -16 -31 -56 -49 -87 -40 -71 -36 -98 14 -98 19 0 36 4 40 9 3 6
18 16 33 24 24 12 145 79 242 134 19 11 105 59 190 108 85 48 175 99 199 112
41 24 54 26 195 28 165 2 189 8 292 69 161 94 263 277 263 471 1 98 -7 99 -94
15 -41 -41 -82 -78 -90 -83 -8 -4 -26 -32 -40 -61 -29 -60 -102 -139 -154
-165 -41 -21 -135 -45 -152 -39 -6 2 13 26 43 54 212 202 283 270 358 339 47
44 119 111 160 150 72 68 202 189 226 210 17 15 225 207 254 235 33 31 223
206 304 280 33 30 99 91 146 134 47 44 88 82 92 85 7 6 -27 46 -184 211 l-98
102 -189 -179 c-104 -98 -189 -183 -190 -189 -1 -6 8 -19 20 -30 28 -25 49
-67 49 -98 0 -26 -52 -86 -75 -86 -7 0 -22 -3 -32 -7 -13 -5 -10 2 10 22 36
37 34 69 -8 116 -27 31 -35 48 -35 78 0 35 6 45 52 86 50 45 51 48 33 61 -28
21 -101 17 -150 -7 -36 -18 -53 -20 -100 -14 -31 3 -55 10 -53 13 2 4 24 46
51 93 l47 87 113 -1 c94 -1 125 3 197 26 148 46 272 157 332 297 31 72 33 80
32 210 0 123 -3 142 -28 208 -66 175 -189 319 -330 387 -83 40 -166 57 -166
35z m-124 -625 c-4 -14 -4 -36 0 -50 6 -23 7 -23 30 -8 19 12 27 13 39 3 18
-15 19 -42 3 -58 -19 -19 33 -33 77 -19 53 16 85 58 85 113 l0 44 95 0 95 0 0
-37 c0 -74 -30 -152 -81 -208 -64 -70 -130 -98 -224 -97 -127 1 -216 53 -272
159 -31 58 -50 140 -39 168 4 12 25 15 102 15 l96 0 -6 -25z m-454 -554 c-8
-85 6 -156 41 -208 59 -88 146 -129 295 -140 61 -4 82 -10 82 -20 0 -8 7 -27
15 -43 l15 -28 -78 -74 c-189 -181 -253 -242 -272 -255 -26 -19 -25 -36 5 -81
49 -72 19 -175 -57 -195 -16 -5 -16 -2 2 20 29 37 26 89 -10 142 -47 70 -42
100 30 175 33 35 60 65 60 69 0 3 -20 9 -43 12 -43 7 -44 8 -56 58 l-12 51 58
59 58 59 -25 16 c-56 38 -91 76 -117 130 -24 49 -28 69 -27 142 0 58 6 97 17
123 10 20 19 37 21 37 2 0 1 -22 -2 -49z m-277 -442 c108 -51 182 -233 141
-348 -18 -50 -21 -117 -5 -158 12 -31 29 -12 -205 -230 l-109 -102 16 -32 c16
-35 13 -57 -11 -76 -38 -31 -104 -1 -118 52 -18 72 34 149 120 176 29 9 72 41
131 96 49 45 86 85 83 88 -3 3 -46 6 -95 6 -142 0 -245 -48 -317 -148 -44 -61
-59 -116 -54 -197 5 -90 44 -151 117 -188 63 -32 110 -35 166 -9 50 23 83 58
100 108 20 56 31 17 16 -52 -29 -130 -190 -195 -326 -130 -137 66 -208 252
-156 408 48 142 121 218 305 314 150 78 276 159 276 177 0 40 -35 119 -70 159
-48 54 -93 72 -166 64 -30 -3 -54 -3 -54 -1 0 3 19 14 43 24 55 26 117 25 172
-1z M3555 3398 c-30 -17 -186 -171 -183 -179 6 -18 271 -289 282 -289 6 0 53
40 104 88 l92 87 0 50 c0 49 -3 53 -82 138 -44 48 -94 95 -109 103 -33 17 -76
18 -104 2z"/>
  </g>
</svg>
